HIERARCHY
ROOT Hips
{
  OFFSET -0.00863835 104.059 1.6015
  CHANNELS 6 Xposition Yposition Zposition Zrotation Xrotation Yrotation
  JOINT Spine
  {
    OFFSET 0 10.1816 0.1315
    CHANNELS 6 Xposition Yposition Zposition Zrotation Xrotation Yrotation
    JOINT Spine1
    {
      OFFSET 0 10.0835 -1.0008
      CHANNELS 6 Xposition Yposition Zposition Zrotation Xrotation Yrotation
      JOINT Spine2
      {
        OFFSET 0 9.1 -1.3734
        CHANNELS 6 Xposition Yposition Zposition Zrotation Xrotation Yrotation
        JOINT Neck
        {
          OFFSET 0 16.6717 -2.5162
          CHANNELS 6 Xposition Yposition Zposition Zrotation Xrotation Yrotation
          JOINT Head
          {
            OFFSET 0 9.6179 1.685
            CHANNELS 6 Xposition Yposition Zposition Zrotation Xrotation Yrotation
            JOINT HeadTop_End
            {
              OFFSET 0 17.8152 2.585
              CHANNELS 6 Xposition Yposition Zposition Zrotation Xrotation Yrotation
              End Site
              {
                OFFSET 0 0 0
              }
            }
            JOINT LeftEye
            {
              OFFSET 3.0676 6.4095 9.2836
              CHANNELS 6 Xposition Yposition Zposition Zrotation Xrotation Yrotation
              End Site
              {
                OFFSET 0 0 0
              }
            }
            JOINT RightEye
            {
              OFFSET -3.0676 6.4095 9.2835
              CHANNELS 6 Xposition Yposition Zposition Zrotation Xrotation Yrotation
              End Site
              {
                OFFSET 0 0 0
              }
            }
          }
        }
        JOINT LeftShoulder
        {
          OFFSET 4.5704 10.946 -2.628
          CHANNELS 6 Xposition Yposition Zposition Zrotation Xrotation Yrotation
          JOINT LeftArm
          {
            OFFSET 10.5924 -0.5246 -2.2321
            CHANNELS 6 Xposition Yposition Zposition Zrotation Xrotation Yrotation
            JOINT LeftForeArm
            {
              OFFSET 27.8415 -0.0001 0
              CHANNELS 6 Xposition Yposition Zposition Zrotation Xrotation Yrotation
              JOINT LeftHand
              {
                OFFSET 28.3288 0 0
                CHANNELS 6 Xposition Yposition Zposition Zrotation Xrotation Yrotation
                JOINT LeftHandThumb1
                {
                  OFFSET 2.4661 -1.575 2.6824
                  CHANNELS 6 Xposition Yposition Zposition Zrotation Xrotation Yrotation
                  JOINT LeftHandThumb2
                  {
                    OFFSET 3.2298 -1.8647 1.8647
                    CHANNELS 6 Xposition Yposition Zposition Zrotation Xrotation Yrotation
                    JOINT LeftHandThumb3
                    {
                      OFFSET 2.6526 -1.5315 1.5315
                      CHANNELS 6 Xposition Yposition Zposition Zrotation Xrotation Yrotation
                      End Site
                      {
                        OFFSET 1.9546 -1.1285 1.1285
                      }
                    }
                  }
                }
                JOINT LeftHandIndex1
                {
                  OFFSET 9.1093 -0.5171 2.2601
                  CHANNELS 6 Xposition Yposition Zposition Zrotation Xrotation Yrotation
                  JOINT LeftHandIndex2
                  {
                    OFFSET 3.6764 0 0
                    CHANNELS 6 Xposition Yposition Zposition Zrotation Xrotation Yrotation
                    JOINT LeftHandIndex3
                    {
                      OFFSET 2.8831 0 0
                      CHANNELS 6 Xposition Yposition Zposition Zrotation Xrotation Yrotation
                      End Site
                      {
                        OFFSET 2.3927 0 0
                      }
                    }
                  }
                }
                JOINT LeftHandMiddle1
                {
                  OFFSET 9.5334 0 0
                  CHANNELS 6 Xposition Yposition Zposition Zrotation Xrotation Yrotation
                  JOINT LeftHandMiddle2
                  {
                    OFFSET 3.6982 0 0
                    CHANNELS 6 Xposition Yposition Zposition Zrotation Xrotation Yrotation
                    JOINT LeftHandMiddle3
                    {
                      OFFSET 2.9509 0 0
                      CHANNELS 6 Xposition Yposition Zposition Zrotation Xrotation Yrotation
                      End Site
                      {
                        OFFSET 2.8339 0 0
                      }
                    }
                  }
                }
                JOINT LeftHandRing1
                {
                  OFFSET 9.1045 -0.0439 -1.8651
                  CHANNELS 6 Xposition Yposition Zposition Zrotation Xrotation Yrotation
                  JOINT LeftHandRing2
                  {
                    OFFSET 3.154 0 0
                    CHANNELS 6 Xposition Yposition Zposition Zrotation Xrotation Yrotation
                    JOINT LeftHandRing3
                    {
                      OFFSET 2.9377 0 0
                      CHANNELS 6 Xposition Yposition Zposition Zrotation Xrotation Yrotation
                      End Site
                      {
                        OFFSET 2.6475 0 0
                      }
                    }
                  }
                }
                JOINT LeftHandPinky1
                {
                  OFFSET 8.0778 -0.4887 -3.8061
                  CHANNELS 6 Xposition Yposition Zposition Zrotation Xrotation Yrotation
                  JOINT LeftHandPinky2
                  {
                    OFFSET 3.6 0 0
                    CHANNELS 6 Xposition Yposition Zposition Zrotation Xrotation Yrotation
                    JOINT LeftHandPinky3
                    {
                      OFFSET 2.1142 0 0
                      CHANNELS 6 Xposition Yposition Zposition Zrotation Xrotation Yrotation
                      End Site
                      {
                        OFFSET 1.9757 0 0
                      }
                    }
                  }
                }
              }
            }
          }
        }
        JOINT RightShoulder
        {
          OFFSET -4.57 10.9462 -2.628
          CHANNELS 6 Xposition Yposition Zposition Zrotation Xrotation Yrotation
          JOINT RightArm
          {
            OFFSET -10.5928 -0.5248 -2.2321
            CHANNELS 6 Xposition Yposition Zposition Zrotation Xrotation Yrotation
            JOINT RightForeArm
            {
              OFFSET -27.8415 0 0
              CHANNELS 6 Xposition Yposition Zposition Zrotation Xrotation Yrotation
              JOINT RightHand
              {
                OFFSET -28.3288 0 0.0001
                CHANNELS 6 Xposition Yposition Zposition Zrotation Xrotation Yrotation
                JOINT RightHandPinky1
                {
                  OFFSET -8.0767 -0.4885 -3.806
                  CHANNELS 6 Xposition Yposition Zposition Zrotation Xrotation Yrotation
                  JOINT RightHandPinky2
                  {
                    OFFSET -3.6 0 0.0001
                    CHANNELS 6 Xposition Yposition Zposition Zrotation Xrotation Yrotation
                    JOINT RightHandPinky3
                    {
                      OFFSET -2.1142 0 0
                      CHANNELS 6 Xposition Yposition Zposition Zrotation Xrotation Yrotation
                      End Site
                      {
                        OFFSET -1.9757 0 0
                      }
                    }
                  }
                }
                JOINT RightHandRing1
                {
                  OFFSET -9.1036 -0.0439 -1.8651
                  CHANNELS 6 Xposition Yposition Zposition Zrotation Xrotation Yrotation
                  JOINT RightHandRing2
                  {
                    OFFSET -3.154 0 0
                    CHANNELS 6 Xposition Yposition Zposition Zrotation Xrotation Yrotation
                    JOINT RightHandRing3
                    {
                      OFFSET -2.9377 0 0
                      CHANNELS 6 Xposition Yposition Zposition Zrotation Xrotation Yrotation
                      End Site
                      {
                        OFFSET -2.6475 0 0
                      }
                    }
                  }
                }
                JOINT RightHandMiddle1
                {
                  OFFSET -9.5325 0 0
                  CHANNELS 6 Xposition Yposition Zposition Zrotation Xrotation Yrotation
                  JOINT RightHandMiddle2
                  {
                    OFFSET -3.6982 0 0
                    CHANNELS 6 Xposition Yposition Zposition Zrotation Xrotation Yrotation
                    JOINT RightHandMiddle3
                    {
                      OFFSET -2.9509 0 0
                      CHANNELS 6 Xposition Yposition Zposition Zrotation Xrotation Yrotation
                      End Site
                      {
                        OFFSET -2.8339 0 0.0001
                      }
                    }
                  }
                }
                JOINT RightHandIndex1
                {
                  OFFSET -9.1083 -0.5168 2.2601
                  CHANNELS 6 Xposition Yposition Zposition Zrotation Xrotation Yrotation
                  JOINT RightHandIndex2
                  {
                    OFFSET -3.6764 0 0
                    CHANNELS 6 Xposition Yposition Zposition Zrotation Xrotation Yrotation
                    JOINT RightHandIndex3
                    {
                      OFFSET -2.8831 0 0
                      CHANNELS 6 Xposition Yposition Zposition Zrotation Xrotation Yrotation
                      End Site
                      {
                        OFFSET -2.3927 0 0
                      }
                    }
                  }
                }
                JOINT RightHandThumb1
                {
                  OFFSET -2.4648 -1.5727 2.6826
                  CHANNELS 6 Xposition Yposition Zposition Zrotation Xrotation Yrotation
                  JOINT RightHandThumb2
                  {
                    OFFSET -3.2298 -1.8647 1.8647
                    CHANNELS 6 Xposition Yposition Zposition Zrotation Xrotation Yrotation
                    JOINT RightHandThumb3
                    {
                      OFFSET -2.6526 -1.5314 1.5314
                      CHANNELS 6 Xposition Yposition Zposition Zrotation Xrotation Yrotation
                      End Site
                      {
                        OFFSET -1.9546 -1.1285 1.1285
                      }
                    }
                  }
                }
              }
            }
          }
        }
      }
    }
  }
  JOINT LeftUpLeg
  {
    OFFSET 8.2078 -6.7517 -1.5996
    CHANNELS 6 Xposition Yposition Zposition Zrotation Xrotation Yrotation
    JOINT LeftLeg
    {
      OFFSET 0 -44.3705 0.2846
      CHANNELS 6 Xposition Yposition Zposition Zrotation Xrotation Yrotation
      JOINT LeftFoot
      {
        OFFSET 0 -44.4279 -2.9822
        CHANNELS 6 Xposition Yposition Zposition Zrotation Xrotation Yrotation
        JOINT LeftToeBase
        {
          OFFSET 0 -8.7287 10.7106
          CHANNELS 6 Xposition Yposition Zposition Zrotation Xrotation Yrotation
          End Site
          {
            OFFSET 0 -0.0007 9.2781
          }
        }
      }
    }
  }
  JOINT RightUpLeg
  {
    OFFSET -8.2078 -6.7517 -1.5996
    CHANNELS 6 Xposition Yposition Zposition Zrotation Xrotation Yrotation
    JOINT RightLeg
    {
      OFFSET 0 -44.3705 0.2862
      CHANNELS 6 Xposition Yposition Zposition Zrotation Xrotation Yrotation
      JOINT RightFoot
      {
        OFFSET 0 -44.4277 -2.9838
        CHANNELS 6 Xposition Yposition Zposition Zrotation Xrotation Yrotation
        JOINT RightToeBase
        {
          OFFSET 0 -8.7287 10.7106
          CHANNELS 6 Xposition Yposition Zposition Zrotation Xrotation Yrotation
          End Site
          {
            OFFSET 0 -0.0007 9.2781
          }
        }
      }
    }
  }
}
MOTION
Frames:	4
Frame Time:	0.0333333
1.45787 118.619 53.5315 1.50998 24.927 -4.31645 0 10.1816 0.1315 -0.594972 10.3445 2.3002 8.88178e-016 10.0835 -1.0008 -1.07391 9.90633 4.22722 -8.88178e-016 9.1 -1.3734 -1.46825 9.88256 4.26414 -8.88178e-016 16.6717 -2.5162 1.8197 -14.498 -0.746488 0 9.6179 1.685 2.53498 -12.7999 -2.37066 -3.55271e-015 17.8152 2.585 1.19271e-015 3.18055e-015 -8.94531e-016 3.0676 6.4095 9.2836 1.19271e-015 3.18055e-015 -8.94531e-016 -3.0676 6.4095 9.2835 1.19271e-015 3.18055e-015 -8.94531e-016 4.5704 10.946 -2.628 10.4566 -0.14302 -16.9745 10.5924 -0.5246 -2.2321 -23.1994 -35.5543 -84.1648 27.8415 -0.0001 0 -0.000203527 -7.03144e-006 -26.6585 28.3288 0 1.06581e-014 34.9279 19.1279 -5.7926 2.4661 -1.575 2.6824 9.03958 -2.2623 4.13716 3.2298 -1.8647 1.8647 1.11753 13.9715 31.2877 2.6526 -1.5315 1.5315 6.23757 -16.84 -8.22014 9.1093 -0.5171 2.2601 -24.817 -1.46644 4.69841 3.6764 2.84217e-014 7.10543e-015 -22.0675 -0.428372 2.19663 2.8831 2.84217e-014 0 -12.3254 -0.134743 1.24787 9.5334 1.42109e-014 -3.55271e-015 -25.7791 -1.55359 4.76957 3.6982 0 3.55271e-015 -22.7502 -0.454954 2.26109 2.9509 2.84217e-014 0 -12.3208 -0.134641 1.24739 9.1045 -0.0439 -1.8651 -30.2728 -1.92565 1.62911 3.154 2.84217e-014 0 -26.8805 -0.631913 2.64381 2.9377 0 0 -12.3113 -0.134438 1.24647 8.0778 -0.4887 -3.8061 -31.4189 -2.06041 -2.60347 3.6 -2.84217e-014 0 -28.0377 -0.686409 2.74868 2.1142 2.84217e-014 0 -12.3066 -0.134331 1.246 -4.57 10.9462 -2.628 -5.18354 0.885238 22.93 -10.5928 -0.5248 -2.2321 14.6622 -46.2018 68.973 -27.8415 0 7.10543e-015 -1.44885e-006 4.4332e-006 9.69146 -28.3288 0 0.0001 -40.1277 24.6074 20.5663 -8.0767 -0.4885 -3.806 38.6091 -2.4398 -0.217544 -3.6 2.84217e-014 0.0001 36.074 -0.889347 -2.73227 -2.1142 2.84217e-014 0 11.7374 -0.0970445 -0.944076 -9.1036 -0.0439 -1.8651 32.7145 -1.92845 -2.1335 -3.154 2.84217e-014 -7.10543e-015 30.1658 -0.628697 -2.33257 -2.9377 0 0 11.7367 -0.0970247 -0.944004 -9.5325 1.42109e-014 0 28.2217 -1.58917 -5.80655 -3.6982 -2.84217e-014 0 25.9791 -0.469063 -2.03322 -2.9509 0 0 11.7371 -0.0970336 -0.946079 -9.1083 -0.5168 2.2601 21.4016 -1.08176 -5.80142 -3.6764 0 -3.55271e-015 21.6187 -0.326508 -1.71 -2.8831 0 7.10543e-015 11.7369 -0.0970353 -0.944023 -2.4648 -1.5727 2.6826 -19.3663 -4.93434 -6.6349 -3.2298 -1.8647 1.8647 4.86627 11.1075 -22.1137 -2.6526 -1.5314 1.5314 -18.5294 -17.4714 2.06483 8.2078 -6.7517 -1.5996 53.679 -85.2717 54.5358 0 -44.3705 0.2846 -122.426 88.439 125.804 -1.77636e-015 -44.4279 -2.9822 2.83331 -25.2607 0.531987 -1.77636e-015 -8.7287 10.7106 2.30017e-006 1.33008 6.10945e-007 -8.2078 -6.7517 -1.5996 -77.5665 -82.7419 -83.99 0 -44.3705 0.2862 47.1437 86.9896 -41.4132 1.77636e-015 -44.4277 -2.9838 -11.7808 -23.6636 -1.92596 1.77636e-015 -8.7287 10.7106 -2.14883e-006 2.89388 -3.00189e-006 
1.6955 118.72 53.5067 1.60773 24.8281 -4.21207 0 10.1816 0.1315 -0.606332 10.2987 2.25301 0 10.0835 -1.0008 -1.05813 9.84615 4.20572 0 9.1 -1.3734 -1.45182 9.82291 4.24225 -8.88178e-016 16.6717 -2.5162 1.69479 -14.4177 -0.737534 1.77636e-015 9.6179 1.685 2.34202 -12.9333 -2.41497 3.55271e-015 17.8152 2.585 1.16786e-015 -3.18055e-015 -1.49089e-016 3.0676 6.4095 9.2836 1.16786e-015 -3.18055e-015 -1.49089e-016 -3.0676 6.4095 9.2835 1.16786e-015 -3.18055e-015 -1.49089e-016 4.5704 10.946 -2.628 10.2867 -0.112238 -17.0089 10.5924 -0.5246 -2.2321 -23.265 -35.1072 -84.3046 27.8415 -0.0001 7.10543e-015 -0.000202314 3.95274e-006 -27.0199 28.3288 0 -3.55271e-015 35.0817 19.4235 -6.12054 2.4661 -1.575 2.6824 9.03958 -2.2623 4.13716 3.2298 -1.8647 1.8647 1.12156 13.9233 31.0321 2.6526 -1.5315 1.5315 6.17557 -16.9216 -8.4689 9.1093 -0.5171 2.2601 -24.5935 -1.44551 4.37282 3.6764 -2.84217e-014 0 -21.8068 -0.418433 2.17194 2.8831 0 -1.77636e-015 -12.0696 -0.129223 1.22235 9.5334 2.84217e-014 0 -25.524 -1.53267 4.75032 3.6982 0 3.55271e-015 -22.4945 -0.444906 2.23698 2.9509 -2.84217e-014 0 -12.0649 -0.129134 1.22191 9.1045 -0.0439 -1.8651 -29.9946 -1.90261 1.84582 3.154 5.68434e-014 0 -26.6234 -0.620092 2.62036 2.9377 0 -3.55271e-015 -12.0555 -0.128929 1.22095 8.0778 -0.4887 -3.8061 -31.1256 -2.06512 -2.18271 3.6 2.84217e-014 7.10543e-015 -27.7796 -0.674064 2.72537 2.1142 0 0 -12.0507 -0.128834 1.22048 -4.57 10.9462 -2.628 -5.24006 0.867859 22.7632 -10.5928 -0.5248 -2.2321 15.3551 -46.0238 69.7245 -27.8415 -2.84217e-014 0 4.80284e-007 -3.21434e-006 9.72914 -28.3288 0 0.0001 -40.6461 24.7082 20.9626 -8.0767 -0.4885 -3.806 38.3229 -2.43494 -0.623768 -3.6 0 0.0001 35.8168 -0.877129 -2.71542 -2.1142 2.84217e-014 -7.10543e-015 11.481 -0.0928541 -0.923726 -9.1036 -0.0439 -1.8651 32.4368 -1.90771 -2.39754 -3.154 0 0 29.9087 -0.618275 -2.31453 -2.9377 0 0 11.4803 -0.0928539 -0.923673 -9.5325 1.42109e-014 0 27.9659 -1.57027 -5.79506 -3.6982 -2.84217e-014 3.55271e-015 25.7227 -0.459989 -2.0145 -2.9509 0 0 11.4808 -0.0928504 -0.925718 -9.1083 -0.5168 2.2601 21.1736 -1.05908 -5.46587 -3.6764 0 3.55271e-015 21.3273 -0.317862 -1.688 -2.8831 0 -3.55271e-015 11.4805 -0.092857 -0.923697 -2.4648 -1.5727 2.6826 -19.3663 -4.93434 -6.6349 -3.2298 -1.8647 1.8647 4.86569 11.0652 -21.8601 -2.6526 -1.5314 1.5314 -18.4787 -17.561 2.31236 8.2078 -6.7517 -1.5996 49.7554 -85.2301 50.9778 -3.55271e-015 -44.3705 0.2846 -110.335 88.4823 113.916 -8.88178e-016 -44.4279 -2.9822 3.4103 -25.2356 0.635879 0 -8.7287 10.7106 -7.91457e-007 1.3322 -1.57929e-006 -8.2078 -6.7517 -1.5996 -76.5762 -82.515 -82.7133 0 -44.3705 0.2862 43.5225 86.8612 -37.8645 1.77636e-015 -44.4277 -2.9838 -11.656 -23.4352 -1.8789 -8.88178e-016 -8.7287 10.7106 -3.95654e-007 2.65232 1.04152e-006 
1.98359 118.984 53.3884 1.70246 24.6595 -4.07006 0 10.1816 0.1315 -0.569006 10.3025 2.19888 -8.88178e-016 10.0835 -1.0008 -1.01106 9.82986 4.17246 0 9.1 -1.3734 -1.40692 9.80899 4.20575 -1.77636e-015 16.6717 -2.5162 1.55794 -14.3468 -0.722657 0 9.6179 1.685 2.08541 -13.0211 -2.44553 0 17.8152 2.585 -1.28589e-015 -6.36111e-015 -3.85145e-016 3.0676 6.4095 9.2836 -1.28589e-015 -6.36111e-015 -3.85145e-016 -3.0676 6.4095 9.2835 -1.28589e-015 -6.36111e-015 -3.85145e-016 4.5704 10.946 -2.628 10.0775 -0.07431 -17.071 10.5924 -0.5246 -2.2321 -23.3903 -34.4829 -84.3216 27.8415 -0.0001 0 -0.000215233 -3.9457e-006 -27.504 28.3288 -2.84217e-014 7.10543e-015 35.2454 19.6208 -6.43709 2.4661 -1.575 2.6824 9.03958 -2.2623 4.13716 3.2298 -1.8647 1.8647 1.12471 13.8688 30.7488 2.6526 -1.5315 1.5315 6.10454 -17.012 -8.74593 9.1093 -0.5171 2.2601 -24.3454 -1.42228 4.01125 3.6764 -2.84217e-014 -3.55271e-015 -21.5174 -0.407523 2.14449 2.8831 2.84217e-014 0 -11.7855 -0.123237 1.19398 9.5334 -1.42109e-014 -7.10543e-015 -25.2407 -1.50954 4.72889 3.6982 -2.84217e-014 -3.55271e-015 -22.2106 -0.433874 2.21017 2.9509 2.84217e-014 0 -11.7808 -0.12314 1.19352 9.1045 -0.0439 -1.8651 -29.6857 -1.87704 2.08634 3.154 5.68434e-014 0 -26.338 -0.607097 2.59428 2.9377 -2.84217e-014 -3.55271e-015 -11.7714 -0.122945 1.19258 8.0778 -0.4887 -3.8061 -30.7995 -2.07008 -1.71568 3.6 -2.84217e-014 0 -27.493 -0.660496 2.69947 2.1142 -5.68434e-014 3.55271e-015 -11.7667 -0.122844 1.19212 -4.57 10.9462 -2.628 -5.16657 0.878477 22.5612 -10.5928 -0.5248 -2.2321 16.1196 -45.6923 70.5579 -27.8415 -2.84217e-014 0 2.2874e-006 -1.00973e-006 9.90023 -28.3288 0 0.0001 -41.0605 24.6846 21.3825 -8.0767 -0.4885 -3.806 38.0049 -2.4293 -1.07465 -3.6 0 0.0001 35.5313 -0.863636 -2.6966 -2.1142 0 0 11.1964 -0.0883326 -0.901104 -9.1036 -0.0439 -1.8651 32.1285 -1.88461 -2.69058 -3.154 2.84217e-014 3.55271e-015 29.6233 -0.606798 -2.29446 -2.9377 -2.84217e-014 -7.10543e-015 11.1957 -0.0883135 -0.901062 -9.5325 -1.42109e-014 0 27.6817 -1.54936 -5.78226 -3.6982 0 0 25.4379 -0.45003 -1.9937 -2.9509 2.84217e-014 -3.55271e-015 11.1961 -0.0883247 -0.903121 -9.1083 -0.5168 2.2601 20.9204 -1.03377 -5.09322 -3.6764 0 0 21.0036 -0.308396 -1.66355 -2.8831 0 0 11.1959 -0.0883204 -0.901079 -2.4648 -1.5727 2.6826 -19.3663 -4.93434 -6.6349 -3.2298 -1.8647 1.8647 4.86661 11.0177 -21.5788 -2.6526 -1.5314 1.5314 -18.4207 -17.6606 2.58775 8.2078 -6.7517 -1.5996 43.0839 -85.1017 44.7006 1.77636e-015 -44.3705 0.2846 -85.3208 88.4712 89.2373 0 -44.4279 -2.9822 4.09385 -25.1348 0.755394 -1.77636e-015 -8.7287 10.7106 9.66709e-007 1.40458 -4.38539e-007 -8.2078 -6.7517 -1.5996 -74.2013 -82.2997 -79.9305 0 -44.3705 0.2862 36.6344 86.4817 -31.1512 -1.77636e-015 -44.4277 -2.9838 -11.431 -23.0439 -1.79935 0 -8.7287 10.7106 1.18718e-006 2.396 1.70255e-006 
2.32193 119.503 53.1679 1.80551 24.4522 -3.98332 8.88178e-016 10.1816 0.1315 -0.506957 10.3384 2.13207 8.88178e-016 10.0835 -1.0008 -0.952185 9.84161 4.08593 0 9.1 -1.3734 -1.34689 9.82382 4.11399 0 16.6717 -2.5162 1.42505 -14.2984 -0.702679 -3.55271e-015 9.6179 1.685 1.92178 -13.1284 -2.43635 0 17.8152 2.585 6.68569e-016 0 -1.26337e-015 3.0676 6.4095 9.2836 6.68569e-016 0 -1.26337e-015 -3.0676 6.4095 9.2835 6.68569e-016 0 -1.26337e-015 4.5704 10.946 -2.628 9.8481 -0.0328749 -17.079 10.5924 -0.5246 -2.2321 -23.3297 -33.6859 -84.1335 27.8415 -0.0001 0 -0.000209895 -1.52962e-006 -27.7621 28.3288 0 0 35.4197 19.7086 -6.80454 2.4661 -1.575 2.6824 9.03958 -2.2623 4.13716 3.2298 -1.8647 1.8647 1.12653 13.8088 30.4411 2.6526 -1.5315 1.5315 6.02458 -17.111 -9.04827 9.1093 -0.5171 2.2601 -24.0752 -1.39671 3.61741 3.6764 2.84217e-014 -3.55271e-015 -21.2022 -0.395802 2.11453 2.8831 0 3.55271e-015 -11.4762 -0.116875 1.16307 9.5334 1.42109e-014 0 -24.9322 -1.48447 4.70538 3.6982 0 3.55271e-015 -21.9014 -0.422022 2.18091 2.9509 2.84217e-014 0 -11.4715 -0.11678 1.16261 9.1045 -0.0439 -1.8651 -29.3493 -1.84918 2.34809 3.154 2.84217e-014 3.55271e-015 -26.0272 -0.593086 2.5658 2.9377 -2.84217e-014 3.55271e-015 -11.4621 -0.116586 1.16167 8.0778 -0.4887 -3.8061 -30.4439 -2.07516 -1.20723 3.6 0 0 -27.181 -0.64586 2.67115 2.1142 0 0 -11.4573 -0.116492 1.16119 -4.57 10.9462 -2.628 -5.08049 0.891278 22.3126 -10.5928 -0.5248 -2.2321 16.8672 -45.035 71.3759 -27.8415 2.84217e-014 0 3.46293e-006 -7.5364e-006 10.1866 -28.3288 2.84217e-014 0.0001 -41.5158 24.5878 21.7705 -8.0767 -0.4885 -3.806 37.6583 -2.4229 -1.56552 -3.6 0 0.0001 35.2204 -0.849039 -2.67602 -2.1142 -2.84217e-014 0 10.8864 -0.0835165 -0.876468 -9.1036 -0.0439 -1.8651 31.7928 -1.8594 -3.00954 -3.154 -2.84217e-014 0 29.3125 -0.594395 -2.27251 -2.9377 0 3.55271e-015 10.8858 -0.0835065 -0.876408 -9.5325 0 7.10543e-015 27.3724 -1.52667 -5.76811 -3.6982 2.84217e-014 -3.55271e-015 25.1278 -0.439303 -1.97098 -2.9509 5.68434e-014 0 10.8862 -0.0835125 -0.878482 -9.1083 -0.5168 2.2601 20.6445 -1.00609 -4.68733 -3.6764 0 0 20.6511 -0.298249 -1.63689 -2.8831 -2.84217e-014 0 10.8859 -0.0835074 -0.87644 -2.4648 -1.5727 2.6826 -19.3663 -4.93434 -6.6349 -3.2298 -1.8647 1.8647 4.86933 10.9648 -21.2728 -2.6526 -1.5314 1.5314 -18.3555 -17.7693 2.88831 8.2078 -6.7517 -1.5996 34.2568 -84.7167 36.2142 -1.77636e-015 -44.3705 0.2846 -51.2484 87.9296 55.6006 0 -44.4279 -2.9822 4.74623 -24.9743 0.864888 0 -8.7287 10.7106 1.17476e-006 1.56176 -6.05642e-007 -8.2078 -6.7517 -1.5996 -69.9329 -82.0927 -75.1996 1.77636e-015 -44.3705 0.2862 27.8073 85.6242 -22.5499 1.77636e-015 -44.4277 -2.9838 -11.1959 -22.4438 -1.69884 0 -8.7287 10.7106 -1.66743e-006 2.1974 -3.94406e-006 
